<svg xmlns="http://www.w3.org/2000/svg" viewBox="0 0 256 256" role="img" aria-label="Specter">
  <rect width="256" height="256" rx="48" fill="#171a18"/>
  <path d="M58 71c18-23 43-35 72-35 30 0 54 12 71 35l-22 18c-13-16-30-24-50-24-17 0-29 6-29 16 0 11 12 15 36 21 38 9 62 25 62 59 0 38-31 61-76 61-32 0-59-12-79-36l23-20c16 18 35 27 57 27 21 0 36-8 36-21 0-12-12-18-39-24-36-8-59-24-59-56 0-8 2-15 5-21h42c-5 4-8 9-8 15 0 10 11 15 34 20 39 9 64 26 64 61 0 4 0 8-1 12 18-21 28-48 28-78 0-18-4-35-11-50l27-13c10 19 15 41 15 63 0 70-57 127-127 127S1 221 1 151c0-31 11-61 31-84l26 22c-15 17-24 39-24 62 0 31 15 59 39 76l11-27c11 8 24 12 38 12 23 0 39-9 39-23 0-12-12-18-40-25-36-8-59-23-59-54 0-15 5-28 15-39H58z" fill="#e7ebe8"/>
  <circle cx="199" cy="57" r="18" fill="#78d6a8"/>
</svg>
